<svg height="512" viewBox="0 0 58 59" width="512" xmlns="http://www.w3.org/2000/svg"><g id="Page-1" fill="none" fill-rule="evenodd"><g id="090---Find" fill-rule="nonzero"><path id="Shape" d="m51 32h2c1.1045695 0 2 .8954305 2 2v23c0 1.1045695-.8954305 2-2 2h-48c-1.1045695 0-2-.8954305-2-2v-23c0-1.1045695.8954305-2 2-2z" fill="#5d4c72"/><path id="Shape" d="m25 11c0 5.5228475-4.4771525 10-10 10s-10-4.4771525-10-10 4.4771525-10 10-10c2.6521649 0 5.195704 1.0535684 7.0710678 2.92893219 1.8753638 1.87536378 2.9289322 4.41890291 2.9289322 7.07106781z" fill="#b0d3f0"/><path id="Shape" d="m53 11c-.0059134 5.3212106-4.1821941 9.703657-9.4969483 9.9657733-5.3147541.2621162-9.9019915-3.6881256-10.431472-8.9829313-.5294806-5.29480565 3.1846942-10.0751887 8.44611-10.87068939 5.2614157-.79550069 10.222809 2.6731783 11.2823103 7.88784739.1333458.65830631.2003476 1.3283243.2 2z" fill="#b0d3f0"/><path id="Shape" d="m15 22c-6.07513225 0-11-4.9248678-11-11 0-6.07513225 4.92486775-11 11-11 6.0751322 0 11 4.92486775 11 11-.019213 6.0671561-4.9328439 10.980787-11 11zm0-20c-4.9705627 0-9 4.02943725-9 9 0 4.9705627 4.0294373 9 9 9s9-4.0294373 9-9c-.0164636-4.96372732-4.0362727-8.98353642-9-9z" fill="#285680"/><path id="Shape" d="m9 12c-.55228475 0-1-.4477153-1-1 .00495836-3.86393756 3.1360624-6.99504164 7-7 .5522847.00000001 1 .44771526 1 1s-.4477153.99999999-1 1c-2.7600532.00330612-4.9966939 2.23994685-5 5 0 .5522847-.44771525 1-1 1z" fill="#fff"/><path id="Shape" d="m43 22c-4.6449228-.0047464-8.7852052-2.9294537-10.3420973-7.305687-1.556892-4.3762332-.1941021-9.25871768 3.4041412-12.19605919 3.5982434-2.93734151 8.6547127-3.29506868 12.6306597-.89357412 3.9759469 2.40149457 6.0125594 7.04348345 5.0872964 11.59532031-1.0501659 5.1195614-5.5538407 8.7960306-10.78 8.8zm0-20c-3.8022025.00242527-7.1921156 2.39553584-8.4673303 5.97751535-1.2752147 3.58197955-.1601997 7.57888215 2.7850861 9.98346975 2.9452857 2.4045875 7.0844648 2.6973092 10.3388479.7311605 3.254383-1.9661486 4.920807-5.7663486 4.1623963-9.4921456-.8589274-4.18849972-4.5433393-7.19652401-8.819-7.2z" fill="#285680"/><path id="Shape" d="m37 12c-.5522847 0-1-.4477153-1-1 .0049584-3.86393756 3.1360624-6.99504164 7-7 .5522847.00000001 1 .44771526 1 1s-.4477153.99999999-1 1c-2.7600532.00330612-4.9966939 2.23994685-5 5 0 .5522847-.4477153 1-1 1z" fill="#fff"/><g fill="#285680"><path id="Shape" d="m33.161 10.22c-.3335458.0001626-.645215-.165986-.831-.443-.7443586-1.11038382-1.9932046-1.77669603-3.33-1.77669603s-2.5856414.66631221-3.33 1.77669603c-.1963121.3033746-.5410211.4772428-.9016743.4547964-.3606533-.0224464-.6811432-.23771519-.8383231-.56309048s-.126597-.71023777.0799974-1.00670592c1.1155785-1.66368053 2.9869153-2.66196294 4.99-2.66196294s3.8744215.99828241 4.99 2.66196294c.2061014.30650759.2264667.70166427.0529667 1.02773548-.1735.32607122-.5126097.52995402-.8819667.53026452z"/><path id="Shape" d="m5 11c-.00034761.6716757.06665419 1.3416937.2 2.0000277l-3.2-.0000277c-.53059053.0028231-1.0395388-.2101411-1.41-.59-.3798589-.3704612-.59282307-.8794095-.59-1.41.0032948-1.10320187.89679813-1.9967052 2-2h3.2c-.13334581.65830631-.20034761 1.3283243-.2 2z"/><path id="Shape" d="m58 11c-.0081672 1.1011688-.8988312 1.9918328-2 2h-3.2c.2666667-1.32.2666667-2.68 0-4h3.2c1.1032019.0032948 1.9967052.89679813 2 2z"/></g><path id="Shape" d="m29 30s-4-3-11-3c-3.6909104-.075484-7.332756.8551138-10.535 2.692-.29100186.1820135-.46696227.5017695-.465.845v22.713c-.00069211.3455018.17701351.6668855.46999905.8500015.29298555.183116.6597408.2020203.97000095.0499985 2.9742378-1.4556853 6.2489075-2.1921434 9.56-2.15 7 0 11 3 11 3" fill="#f9eab0"/><path id="Shape" d="m29 39v16s4-3 11-3c3.3109322-.0427655 6.5855938.6930058 9.56 2.148.3102601.1520218.6770154.1331175.9700009-.0499985.2929856-.183116.4706912-.5044997.4699991-.8500015v-22.711c.0019623-.3432305-.1739981-.6629865-.465-.845-3.202244-1.8368862-6.8440896-2.767484-10.535-2.692-7 0-11 3-11 3z" fill="#f3d55b"/></g></g></svg>