<?xml version="1.0" encoding="iso-8859-1"?>
<!-- Generator: Adobe Illustrator 19.0.0, SVG Export Plug-In . SVG Version: 6.00 Build 0)  -->
<svg version="1.1" id="Capa_1" xmlns="http://www.w3.org/2000/svg" xmlns:xlink="http://www.w3.org/1999/xlink" x="0px" y="0px"
	 viewBox="0 0 511.999 511.999" style="enable-background:new 0 0 511.999 511.999;" xml:space="preserve">
<path style="fill:#FAD7A5;" d="M490.287,303.458l-36.728-15.532c-4.879-2.063-8.023-6.667-8.023-11.749v-23.785h-54.042v23.785
	c0,5.081-3.145,9.685-8.024,11.748l-36.728,15.533c-9.758,4.127-16.046,13.335-16.046,23.496v85.045h175.639v-85.044
	C506.333,316.793,500.045,307.585,490.287,303.458z"/>
<path style="fill:#FFE1B4;" d="M419.614,268.409h-2.198c-23.25,0-42.098-18.848-42.098-42.098v-38.125h86.393v38.125
	C461.711,249.562,442.863,268.409,419.614,268.409z"/>
<path style="fill:#FAD7A5;" d="M400.002,225.213v-37.026h-24.684v37.026c0,23.857,19.34,43.197,43.197,43.197
	c4.292,0,8.429-0.647,12.342-1.812C413.017,261.284,400.002,244.777,400.002,225.213z"/>
<path style="fill:#D59F63;" d="M424.686,157.332h-12.342c-23.857,0-43.197,19.34-43.197,43.197v9.872
	c0,4.573,4.852,7.678,8.897,5.545c6.261-3.302,13.603-9.462,18.538-16.108c1.993-2.684,5.825-3.082,8.504-1.082
	c19.581,14.612,46.855,11.253,57.881,9.076c2.873-0.567,4.915-3.114,4.915-6.043v-1.258
	C467.882,176.672,448.542,157.332,424.686,157.332z"/>
<path style="fill:#CD915A;" d="M378.044,215.945c6.261-3.302,13.603-9.462,18.538-16.108c0.755-1.017,1.808-1.597,2.929-1.952
	c-8.724-12.145-9.319-25.682-8.235-35.049c-13.196,7.392-22.128,21.491-22.128,37.692v9.871
	C369.147,214.974,373.999,218.079,378.044,215.945z"/>
<path style="fill:#DBD9DC;" d="M490.287,303.458l-36.728-15.532c-2.959-1.251-5.161-3.496-6.53-6.156l-28.713,26.229l-28.439-25.979
	c-1.383,2.548-3.541,4.692-6.408,5.905l-36.728,15.533c-9.758,4.127-16.046,13.335-16.046,23.496v85.045h175.639v-85.044
	C506.333,316.793,500.045,307.585,490.287,303.458z"/>
<path style="fill:#E6AF78;" d="M140.476,320.815l-28.531-10.699c-5.423-2.034-9.016-7.218-9.016-13.01V279.28H61.246v17.826
	c0,5.792-3.593,10.976-9.016,13.01l-28.531,10.699c-10.846,4.067-18.032,14.436-18.032,26.02v65.164h152.842v-65.164
	C158.508,335.252,151.323,324.883,140.476,320.815z"/>
<path style="fill:#DBD9DC;" d="M5.667,411.999h152.842v-65.164c0-11.584-7.186-21.953-18.032-26.02l-27.441-10.29l-21.122,21.122
	c-5.426,5.426-14.224,5.426-19.65,0L51.14,310.525l-27.442,10.29c-10.846,4.067-18.032,14.436-18.032,26.02L5.667,411.999
	L5.667,411.999z"/>
<path style="fill:#F0C087;" d="M82.356,286.227H81.82c-26.71,0-48.364-21.653-48.364-48.364v-21.378
	c0-26.71,21.653-48.364,48.364-48.364h0.536c26.71,0,48.364,21.653,48.364,48.364v21.378
	C130.719,264.574,109.066,286.227,82.356,286.227z"/>
<path style="fill:#E6AF78;" d="M61.246,237.595v-20.842c0-22.027,14.653-40.61,34.737-46.591c-4.405-1.312-9.063-2.04-13.895-2.04
	c-26.858,0-48.632,21.773-48.632,48.632v20.842c0,26.858,21.773,48.632,48.632,48.632c4.832,0,9.489-0.728,13.895-2.04
	C75.899,278.205,61.246,259.622,61.246,237.595z"/>
<circle style="fill:#6E4B53;" cx="82.09" cy="168.119" r="27.789"/>
<path style="fill:#5C414B;" d="M33.456,216.753v15.59c7.695-3.645,17.121-9.393,24.332-17.944c2.107-2.499,5.711-3.014,8.561-1.413
	c9.159,5.145,30.636,14.945,64.37,17.162v-13.394c0-26.858-21.773-48.632-48.632-48.632l0,0
	C55.229,168.122,33.456,189.895,33.456,216.753z"/>
<path style="fill:#503441;" d="M55.538,176.039c-13.285,8.681-22.082,23.66-22.082,40.715v15.59
	c7.695-3.645,17.121-9.393,24.332-17.945c1.105-1.311,2.625-2.041,4.228-2.241C56.87,202.377,52.851,189.623,55.538,176.039z"/>
<path style="fill:#EDEBED;" d="M35.304,356.969l-25.16-25.16c-2.83,4.391-4.477,9.559-4.477,15.026v65.164h36.666V373.94
	C42.333,367.575,39.805,361.47,35.304,356.969z"/>
<path style="fill:#B48764;" d="M343.328,278.201l-43.494-20.136c-5.778-2.675-9.502-8.644-9.502-15.23v-30.836L226.333,212v30.835
	c0,6.586-3.724,12.555-9.501,15.229l-43.495,20.137c-11.556,5.35-19.003,17.287-19.003,30.46v103.338h208l-0.001-103.336
	C362.332,295.489,354.885,283.551,343.328,278.201z"/>
<path style="fill:#5D5360;" d="M154.333,411.999h208l-0.001-103.336c0-13.173-7.448-25.111-19.004-30.461l-43.198-19.999
	l-30.483,30.483c-6.248,6.248-16.379,6.248-22.627,0l-30.484-30.484l-43.199,20c-11.556,5.35-19.003,17.287-19.003,30.46v103.337
	H154.333z"/>
<path style="fill:#C39772;" d="M258.333,243.999L258.333,243.999c-30.928,0-56-25.072-56-56v-48h112v48
	C314.333,218.927,289.261,243.999,258.333,243.999z"/>
<path style="fill:#B48764;" d="M234.333,187.999v-48h-32v48c0,30.928,25.072,56,56,56c5.564,0,10.927-0.839,16-2.35
	C251.207,234.761,234.333,213.363,234.333,187.999z"/>
<path style="fill:#5C414B;" d="M266.333,99.999h-16c-30.928,0-56,25.072-56,56v12.798c0,5.929,6.29,9.954,11.534,7.188
	c8.116-4.281,17.635-12.267,24.032-20.882c2.583-3.479,7.551-3.995,11.024-1.403c25.385,18.943,60.743,14.589,75.037,11.766
	c3.725-0.735,6.372-4.038,6.372-7.834v-1.633C322.333,125.071,297.261,99.999,266.333,99.999z"/>
<path style="fill:#503441;" d="M205.868,175.985c8.116-4.281,17.635-12.267,24.032-20.882c0.979-1.319,2.344-2.071,3.797-2.53
	c-11.31-15.744-12.082-33.294-10.676-45.438c-17.107,9.583-28.687,27.861-28.687,48.864v12.797
	C194.333,174.725,200.623,178.75,205.868,175.985z"/>
<g>
	<path style="fill:#6F6571;" d="M194.333,341.94c0-6.365-2.528-12.47-7.029-16.971l-30.09-30.09c-1.854,4.25-2.88,8.929-2.88,13.782
		v103.338h40L194.333,341.94L194.333,341.94z"/>
	<path style="fill:#6F6571;" d="M322.332,341.94c0-6.365,2.528-12.47,7.029-16.971l30.09-30.09c1.854,4.25,2.88,8.929,2.88,13.782
		l0.002,103.338h-40.001V341.94z"/>
</g>
<path style="fill:#EDEBED;" d="M506.333,411.999v-85.044c0-5.222-1.683-10.177-4.621-14.335l-20.35,20.35
	c-4.5,4.501-7.029,10.605-7.029,16.971v62.058H506.333z"/>
<path d="M344.214,276.755l-43.582-19.37c-3.079-1.368-5.067-4.429-5.067-7.797V237.62c14.64-11.665,24.05-29.628,24.05-49.758
	v-16.847c4.823-2.665,8.016-7.815,8.016-13.583v-1.635c0-35.076-28.537-63.613-63.613-63.613h-16.032
	c-35.076,0-63.613,28.537-63.613,63.613v14.835c0,5.07,2.182,9.663,5.985,12.602c0.645,0.498,1.324,0.936,2.031,1.315v3.312
	c0,20.13,9.409,38.093,24.048,49.757v11.969c0,3.368-1.989,6.429-5.067,7.797l-43.582,19.37
	c-14.273,6.343-23.496,20.535-23.496,36.154v99.404c0,4.142,3.358,7.5,7.5,7.5s7.5-3.358,7.5-7.5v-99.403
	c0-0.869,0.062-1.728,0.152-2.58l20.082,20.082c3.125,3.126,4.847,7.281,4.847,11.702v70.2c0,4.142,3.358,7.5,7.5,7.5
	s7.5-3.358,7.5-7.5v-70.2c0-8.427-3.281-16.349-9.24-22.308l-23.941-23.942c2.157-2.238,4.745-4.093,7.689-5.402l42.847-19.043
	l31.775,31.775v109.119c0,4.142,3.358,7.5,7.5,7.5c4.142,0,7.5-3.358,7.5-7.5V303.194l31.775-31.775l42.846,19.042
	c2.944,1.309,5.532,3.164,7.689,5.403l-23.941,23.941c-5.959,5.959-9.24,13.881-9.24,22.308v70.2c0,4.142,3.358,7.5,7.5,7.5
	s7.5-3.358,7.5-7.5v-70.2c0-4.42,1.721-8.576,4.847-11.702l20.081-20.081c0.09,0.852,0.152,1.709,0.152,2.578v99.404
	c0,4.142,3.358,7.5,7.5,7.5s7.5-3.358,7.5-7.5v-99.403C367.709,297.29,358.487,283.098,344.214,276.755z M207.388,187.862v-3.373
	c4.68-1.855,9.248-4.807,13.621-8.842c3.043-2.809,3.234-7.554,0.424-10.598c-2.809-3.043-7.553-3.234-10.598-0.425
	c-3.751,3.463-7.499,5.7-11.137,6.65c-0.088,0.023-0.153,0.033-0.199,0.037c-0.054-0.105-0.127-0.325-0.127-0.678v-14.835
	c0-26.805,21.808-48.613,48.613-48.613h16.032c26.806,0,48.613,21.808,48.613,48.613v1.635c0,0.243-0.146,0.454-0.338,0.492
	c-44.911,8.87-67.437-7.847-75.037-15.447c-2.929-2.929-7.678-2.929-10.606,0c-2.929,2.929-2.929,7.678,0,10.606
	c23.29,23.29,57.275,23.71,77.965,21.224v13.553c0,26.805-21.808,48.613-48.613,48.613
	C229.196,236.475,207.388,214.667,207.388,187.862z M256.001,251.475c8.703,0,17.001-1.76,24.563-4.938v3.051
	c0,4.318,1.197,8.444,3.318,12.012L256,289.481l-27.881-27.882c2.12-3.567,3.317-7.694,3.317-12.011v-3.052
	C238.999,249.714,247.298,251.475,256.001,251.475z"/>
<path d="M135.242,219.926c0-19.566-10.168-36.79-25.489-46.702c0.946-3.035,1.44-6.214,1.44-9.411
	c0-17.396-14.152-31.548-31.548-31.548s-31.548,14.153-31.548,31.548c0,3.237,0.49,6.385,1.438,9.413
	c-15.32,9.911-25.487,27.135-25.487,46.7v16.032c0,18.947,9.533,35.701,24.048,45.743v16.493c0,3.253-1.807,6.177-4.716,7.632
	l-25.941,12.97C6.682,324.176,0,334.988,0,347.015v65.299c0,4.142,3.358,7.5,7.5,7.5s7.5-3.358,7.5-7.5v-62.055l12.218,12.218
	c3.125,3.126,4.847,7.281,4.847,11.702v38.135c0,4.142,3.358,7.5,7.5,7.5s7.5-3.358,7.5-7.5v-38.135
	c0-8.427-3.282-16.349-9.24-22.308L20.82,334.866c-0.082-0.082-0.17-0.153-0.254-0.23c1.067-0.942,2.264-1.762,3.582-2.422
	l25.941-12.97c1.329-0.665,2.566-1.45,3.719-2.322l18.337,18.338v77.055c0,4.142,3.358,7.5,7.5,7.5s7.5-3.358,7.5-7.5v-77.056
	l18.338-18.338c1.154,0.873,2.39,1.658,3.719,2.322l7.153,3.577c1.077,0.539,2.221,0.794,3.349,0.794c2.751,0,5.4-1.52,6.714-4.147
	c1.853-3.705,0.351-8.21-3.354-10.062l-7.153-3.577c-2.91-1.455-4.717-4.379-4.717-7.631v-16.493
	c14.515-10.042,24.048-26.797,24.048-45.743L135.242,219.926L135.242,219.926z M63.097,163.813c0-9.125,7.423-16.548,16.548-16.548
	s16.548,7.424,16.548,16.548c0,1.005-0.09,1.99-0.262,2.955c-5.154-1.582-10.621-2.439-16.286-2.439
	c-5.657,0-11.117,0.854-16.263,2.432C63.209,165.796,63.097,164.816,63.097,163.813z M79.645,179.33
	c22.385,0,40.597,18.212,40.597,40.597v2.718c-31.225,9.56-49.834-14.193-50.629-15.234c-1.305-1.739-3.3-2.827-5.468-2.981
	c-2.168-0.152-4.298,0.641-5.835,2.178c-7.159,7.159-14.171,10.612-19.235,12.279C39.63,196.981,57.609,179.33,79.645,179.33z
	 M96.976,304.214l-17.331,17.331l-17.331-17.331c0.506-1.934,0.783-3.95,0.783-6.019v-9.155c5.229,1.634,10.788,2.515,16.548,2.515
	s11.319-0.881,16.548-2.515v9.155C96.193,300.264,96.47,302.281,96.976,304.214z M79.645,276.555
	c-22.385,0-40.597-18.212-40.597-40.597v-1.554c5.981-1.374,14.849-4.567,24.1-12.007c3.273,3.088,7.951,6.876,13.908,10.125
	c7.046,3.843,16.777,7.398,28.663,7.398c4.517,0,9.35-0.525,14.459-1.731C119.015,259.541,101.281,276.555,79.645,276.555z"/>
<path d="M494.561,302.765l-41.973-20.987c-2.909-1.455-4.716-4.379-4.716-7.631v-10.629c9.825-8.723,16.032-21.435,16.032-35.575
	v-8.537c0.173,0,0.343,0.005,0.516,0.005c4.142,0,7.5-3.358,7.5-7.5v-16.032c0-26.236-21.345-47.581-47.581-47.581h-16.032
	c-26.236,0-47.581,21.345-47.581,47.581v16.032c0,4.142,3.358,7.5,7.5,7.5c0.062,0,0.242-0.002,0.516-0.013v8.545
	c0,14.141,6.208,26.853,16.033,35.576v10.629c0,3.253-1.807,6.177-4.717,7.631c-3.705,1.852-5.207,6.357-3.354,10.062
	c1.314,2.628,3.963,4.148,6.714,4.148c1.127,0,2.271-0.255,3.348-0.793c1.329-0.665,2.566-1.45,3.719-2.322l18.338,18.338v101.103
	c0,4.142,3.358,7.5,7.5,7.5s7.5-3.358,7.5-7.5V311.21l18.337-18.338c1.154,0.873,2.39,1.658,3.719,2.322l40.615,20.308
	l-12.319,12.319c-5.958,5.959-9.24,13.881-9.24,22.308v62.184c0,4.142,3.358,7.5,7.5,7.5s7.5-3.358,7.5-7.5v-62.184
	c0-4.42,1.721-8.576,4.847-11.702l11.669-11.669c0.354,1.357,0.548,2.772,0.548,4.224v81.331c0,4.142,3.358,7.5,7.5,7.5
	s7.5-3.358,7.5-7.5v-81.331C512,318.956,505.318,308.144,494.561,302.765z M375.726,195.878c0-17.965,14.616-32.581,32.581-32.581
	h16.032c17.965,0,32.581,14.616,32.581,32.581v8.331c-32.603-1.759-52.278-14.446-52.469-14.571c-1.269-0.846-2.717-1.26-4.158-1.26
	c-1.936,0-3.856,0.748-5.306,2.197c-7.176,7.176-14.207,10.63-19.262,12.293L375.726,195.878L375.726,195.878z M383.742,215.852
	c5.253-2.099,11.373-5.436,17.601-10.742c7.876,4.098,24.354,11.181,47.561,13.521v9.312c0,17.965-14.616,32.581-32.581,32.581
	s-32.581-14.615-32.581-32.581L383.742,215.852L383.742,215.852z M416.323,275.523c5.817,0,11.392-1.054,16.548-2.973v1.597
	c0,2.069,0.276,4.085,0.783,6.019l-17.331,17.331l-17.331-17.331c0.506-1.934,0.783-3.95,0.783-6.019v-1.597
	C404.931,274.469,410.506,275.523,416.323,275.523z"/>
<g>
</g>
<g>
</g>
<g>
</g>
<g>
</g>
<g>
</g>
<g>
</g>
<g>
</g>
<g>
</g>
<g>
</g>
<g>
</g>
<g>
</g>
<g>
</g>
<g>
</g>
<g>
</g>
<g>
</g>
</svg>
