<svg id="Capa_1" enable-background="new 0 0 512 512" height="512" viewBox="0 0 512 512" width="512" xmlns="http://www.w3.org/2000/svg"><g><path d="m210.578 346.148c-17.453 0-32.213 8.404-37.093 19.965-18.954.912-34.189 11.742-36.026 25.444-15.21 3.83-26.14 14.357-26.14 26.752 0 11.371 9.2 21.171 22.463 25.67 1.026 14.963 17.985 26.866 38.757 26.866 1.859 0 3.686-.101 5.475-.286 4.668 11.81 19.587 20.451 37.282 20.451 4.017 0 7.891-.445 11.534-1.271 6.583 8.795 19.377 14.762 34.083 14.762s27.501-5.967 34.083-14.762c3.644.826 7.518 1.271 11.534 1.271 17.695 0 32.614-8.641 37.282-20.451 1.79.184 3.616.286 5.475.286 20.772 0 37.731-11.902 38.757-26.866 13.264-4.499 22.463-14.299 22.463-25.67 0-14.646-15.255-26.694-34.809-28.153-2.652-13.033-17.487-23.162-35.789-24.043-4.88-11.561-19.64-19.965-37.093-19.965z" fill="#fb7722"/><path d="m410.512 418.308c0 11.37-9.198 21.175-22.464 25.67-1.024 14.964-17.989 26.864-38.756 26.864-1.859 0-3.689-.095-5.481-.284-4.665 11.815-19.582 20.454-37.276 20.454-4.021 0-7.89-.446-11.54-1.271-6.581 8.79-19.373 14.755-34.081 14.755s-27.5-5.965-34.081-14.755c-3.641.825-7.52 1.271-11.54 1.271-15.864 0-29.491-6.941-35.503-16.898 1.821.199 3.698.303 5.595.303 4.021 0 7.89-.446 11.531-1.271 6.59 8.8 19.383 14.765 34.09 14.765 14.698 0 27.5-5.965 34.081-14.765 3.641.825 7.52 1.271 11.531 1.271 17.695 0 32.62-8.639 37.286-20.445 1.792.18 3.613.284 5.471.284 20.777 0 37.732-11.91 38.756-26.864 13.266-4.504 22.464-14.3 22.464-25.679 0-4.059-1.176-7.918-3.291-11.408 18.775 1.973 33.208 13.76 33.208 28.003z" fill="#f2671f"/><ellipse cx="256.001" cy="414.837" fill="#e1dde1" rx="68.645" ry="38.435"/><g><g><g><g><g><g><g><path d="m284.07 379.842v34.157c0 15.011-12.176 27.187-27.187 27.187h-1.764c-15.011 0-27.187-12.176-27.187-27.187v-34.157z" fill="#e1dde1"/><path d="m284.07 379.842v26.542c-8.933 2.494-18.349 3.831-28.069 3.831s-19.136-1.337-28.069-3.831v-26.542z" fill="#cbc5cb"/><g><g><g><g><g><g><g><circle cx="358.676" cy="270.236" fill="#e1dde1" r="24.537"/><path d="m383.211 270.179c-.031-13.525-11.003-24.479-24.536-24.479s-24.504 10.955-24.536 24.479z" fill="#cbc5cb"/></g><g><circle cx="153.327" cy="270.236" fill="#e1dde1" r="24.537"/><path d="m177.863 270.179c-.031-13.525-11.003-24.479-24.536-24.479s-24.504 10.955-24.536 24.479z" fill="#cbc5cb"/></g></g><path d="m341.431 198.486v105.409c0 47.186-38.253 85.439-85.429 85.439s-85.429-38.253-85.429-85.439v-105.409z" fill="#f2eff2"/><path d="m170.572 198.486h170.859v71.693h-170.859z" fill="#e1dde1"/></g><g fill="#f69583"><circle cx="311.699" cy="304.974" r="13.57"/><circle cx="200.304" cy="304.974" r="13.57"/></g></g></g></g></g></g></g><path d="" fill="none"/></g></g></g></g><g><g><path d="m152.4 179.134h90.729c-.501-72.634-45.107-121.569-109.225-121.569-79.307 0-74.859 64.77-74.859 64.77 34.917-28.7 92.323 11.562 93.355 56.799z" fill="#64b9fc"/><path d="m243.133 179.133h-41.8c-.446-64.577-35.75-110.416-88.625-119.785 6.297-1.147 13.333-1.783 21.194-1.783 64.122.001 108.729 48.931 109.231 121.568z" fill="#31a7fb"/><g><circle cx="58.67" cy="132.092" fill="#fddd45" r="26.17"/><path d="m84.843 132.089c0 14.452-11.719 26.171-26.171 26.171-6.852 0-13.086-2.63-17.747-6.936 13.441-1.086 24.018-12.346 24.018-26.077 0-7.601-3.248-14.452-8.424-19.235.711-.066 1.432-.094 2.153-.094 14.452 0 26.171 11.719 26.171 26.171z" fill="#f8c52d"/></g></g><g><path d="m378.099 57.565c-64.117 0-108.723 48.935-109.225 121.569h90.729c1.032-45.237 58.437-85.499 93.354-56.799 0 .001 4.449-64.77-74.858-64.77z" fill="#fb7722"/><path d="m452.957 122.332c-34.915-28.695-92.323 11.569-93.357 56.801h-28.372c-1.821-49.225 56.517-104.802 112.91-91.185 10.023 16.832 8.819 34.384 8.819 34.384z" fill="#f2671f"/><g><g><path d="m305.745 179.134c-13.748-29.74 2.37-165.105 57.818-76.39 0 0-11.198-95.244-65.146-95.244-43.075 0-87.6 77.423-89.014 171.634z" fill="#5169cd"/></g><g><path d="m363.563 102.741c-55.445-88.71-71.566 46.655-57.816 76.392h-30.487c-16.49-29.738 14.205-178.701 81.541-107.761l.009.009c5.103 17.307 6.753 31.36 6.753 31.36z" fill="#3351c5"/></g><g><circle cx="357.458" cy="79.908" fill="#fddd45" r="26.17"/><path d="m383.631 79.905c0 14.452-11.719 26.171-26.171 26.171-6.852 0-13.086-2.63-17.747-6.936 13.441-1.086 24.018-12.346 24.018-26.077 0-7.601-3.248-14.452-8.424-19.235.711-.066 1.432-.094 2.153-.094 14.452 0 26.171 11.719 26.171 26.171z" fill="#f8c52d"/></g></g><g><circle cx="453.33" cy="132.092" fill="#fddd45" r="26.17"/><path d="m479.503 132.089c0 14.452-11.719 26.171-26.171 26.171-6.852 0-13.086-2.63-17.747-6.936 13.441-1.086 24.018-12.346 24.018-26.077 0-7.601-3.248-14.452-8.424-19.235.711-.066 1.432-.094 2.153-.094 14.452 0 26.171 11.719 26.171 26.171z" fill="#f8c52d"/></g></g></g><path d="m344.543 172.578c-7.227 0-13.645 3.449-17.708 8.788-4.063-5.339-10.482-8.788-17.708-8.788-7.227 0-13.645 3.449-17.708 8.788-4.063-5.339-10.482-8.788-17.708-8.788-7.227 0-13.645 3.449-17.708 8.788-4.063-5.339-10.482-8.788-17.708-8.788s-13.645 3.449-17.708 8.788c-4.063-5.339-10.482-8.788-17.708-8.788s-13.645 3.449-17.708 8.788c-4.063-5.339-10.482-8.788-17.708-8.788-12.284 0-22.242 9.958-22.242 22.242s9.958 22.242 22.242 22.242c7.227 0 13.645-3.449 17.708-8.788 4.063 5.339 10.482 8.788 17.708 8.788s13.646-3.449 17.708-8.788c4.063 5.339 10.482 8.788 17.708 8.788s13.646-3.449 17.708-8.788c4.063 5.339 10.482 8.788 17.708 8.788 7.227 0 13.646-3.449 17.708-8.788 4.063 5.339 10.482 8.788 17.708 8.788 7.227 0 13.645-3.449 17.708-8.788 4.063 5.339 10.482 8.788 17.708 8.788 12.284 0 22.242-9.958 22.242-22.242s-9.958-22.242-22.242-22.242z" fill="#f2eff2"/><g><path d="m368.854 250.735h-225.705c-5.759 0-10.428-4.669-10.428-10.428v-22.867c0-5.759 4.669-10.428 10.428-10.428h225.705c5.759 0 10.428 4.669 10.428 10.428v22.867c-.001 5.76-4.669 10.428-10.428 10.428z" fill="#fcb44d"/><g fill="#fb7722"><path d="m166.172 207.014h35.563v43.722h-35.563z"/><path d="m238.22 207.014h35.563v43.722h-35.563z"/><path d="m310.268 207.014h35.563v43.722h-35.563z"/></g></g></g><g><path d="m215.793 269.446h-.1c-4.142 0-7.5 3.358-7.5 7.5s3.358 7.5 7.5 7.5h.1c4.142 0 7.5-3.358 7.5-7.5s-3.358-7.5-7.5-7.5z"/><path d="m296.31 269.446h-.1c-4.142 0-7.5 3.358-7.5 7.5s3.358 7.5 7.5 7.5h.1c4.142 0 7.5-3.358 7.5-7.5s-3.358-7.5-7.5-7.5z"/><path d="m276.826 297.475c-4.142 0-7.5 3.358-7.5 7.5v6.316c0 7.347-5.977 13.324-13.324 13.324s-13.324-5.977-13.324-13.324v-6.316c0-4.142-3.358-7.5-7.5-7.5s-7.5 3.358-7.5 7.5v6.316c0 15.618 12.706 28.324 28.324 28.324s28.324-12.706 28.324-28.324v-6.316c0-4.142-3.358-7.5-7.5-7.5z"/><path d="m457.039 98.631c-6.133-19.384-24.43-48.565-78.941-48.565-1.573 0-3.157.028-4.708.084-.059.002-.117.012-.176.015-4.705-2.503-10.067-3.927-15.757-3.927-.62 0-1.235.02-1.847.053-13.662-30.302-33.385-46.291-57.193-46.291-16.037 0-32.318 8.85-47.083 25.592-2.74 3.107-2.442 7.846.664 10.586 3.108 2.74 7.847 2.443 10.586-.664 11.835-13.42 24.226-20.514 35.833-20.514 17.252 0 31.579 11.944 42.636 35.52-6.183 3.465-11.163 8.823-14.157 15.285-4.633.738-10.297 3.208-15.63 9.785-15.91 19.618-20.328 66.74-16.136 92.976-1.289.689-2.533 1.465-3.712 2.344-5.056-3.764-11.206-5.83-17.706-5.83-6.507 0-12.657 2.065-17.71 5.828-5.053-3.763-11.203-5.828-17.71-5.828-6.5 0-12.65 2.066-17.706 5.83-1.058-.788-2.174-1.484-3.321-2.119 1.937-38.694 11.341-76.003 26.641-105.37 1.914-3.673.487-8.203-3.186-10.117-3.674-1.913-8.203-.487-10.117 3.186-4.792 9.198-9.022 19.131-12.685 29.583-21.018-23.309-50.405-36.007-84.013-36.007-54.509 0-72.807 29.181-78.941 48.565-16.828 1.851-29.964 16.148-29.964 33.461 0 18.565 15.104 33.67 33.67 33.67s33.67-15.104 33.67-33.67c0-4.107-.742-8.042-2.094-11.684 9.815.968 20.154 5.374 29.521 12.763 14.143 11.156 23.367 26.994 24.897 42.578-4.329 5.167-6.942 11.818-6.942 19.071 0 1.813.17 3.622.498 5.399-7.493 2.149-12.998 9.048-12.998 17.222v22.867c0 3.692 1.124 7.126 3.044 9.981-4.484 5.611-6.975 12.599-6.975 19.951 0 17.661 14.373 32.03 32.04 32.03 3.318 0 6.605-.529 9.738-1.529v3.155c0 17.076 4.635 33.089 12.705 46.854-2.823 2.482-5.196 5.256-7.03 8.242-18.427 2.235-33.173 12.749-37.605 26.625-16.52 5.682-27.32 18.39-27.32 32.692 0 12.973 8.989 24.81 23.259 31.103 4.14 16.571 23.006 28.933 45.461 28.933.341 0 .683-.003 1.026-.009 7.579 12.255 23.587 20.174 41.731 20.174 2.926 0 5.83-.208 8.678-.621 8.649 8.797 22.34 14.111 36.939 14.111s28.291-5.314 36.939-14.111c2.848.413 5.752.621 8.678.621 18.144 0 34.152-7.919 41.731-20.174.343.006.686.009 1.026.009 22.455 0 41.321-12.362 45.461-28.933 14.27-6.293 23.259-18.131 23.259-31.103 0-17.174-15.407-31.585-36.6-35.025-5.27-12.806-19.364-22.198-36.755-24.294-2.032-3.314-4.723-6.355-7.962-9.032 7.786-13.586 12.241-29.313 12.241-46.062v-3.155c3.133 1.001 6.42 1.529 9.738 1.529 17.667 0 32.04-14.369 32.04-32.03 0-7.352-2.491-14.34-6.975-19.951 1.921-2.855 3.044-6.289 3.044-9.981v-22.867c0-8.174-5.505-15.074-12.997-17.222.328-1.777.498-3.586.498-5.399 0-7.26-2.619-13.918-6.956-19.087.89-9.037 4.368-18.24 10.113-26.694 2.328-3.426 1.438-8.091-1.988-10.419-3.427-2.327-8.09-1.438-10.419 1.988-5.547 8.164-9.406 16.977-11.391 25.901-2.87-.924-5.926-1.429-9.099-1.429-6.501 0-12.65 2.066-17.707 5.83-4.887-3.64-10.805-5.674-17.076-5.805-3.661-24.425 1.544-65.747 13.157-80.067.378-.466.745-.876 1.103-1.251 1.931 16.744 16.187 29.79 33.439 29.79 18.565 0 33.67-15.104 33.67-33.67 0-5.172-1.175-10.073-3.267-14.456 33.832 2.674 48.112 19.271 53.95 35.001-3.375 1.233-6.493 2.997-9.267 5.181-12.642-1.633-26.11 1.344-39.064 8.672-3.605 2.04-4.875 6.615-2.835 10.221 1.379 2.438 3.919 3.809 6.535 3.809 1.251 0 2.52-.314 3.686-.974 6.886-3.895 14.044-6.242 20.88-6.933-1.347 3.636-2.085 7.565-2.085 11.663 0 18.565 15.104 33.67 33.67 33.67 18.565 0 33.67-15.104 33.67-33.67.002-17.311-13.132-31.608-29.959-33.46zm-398.37 52.131c-10.294 0-18.67-8.375-18.67-18.67s8.375-18.67 18.67-18.67 18.67 8.375 18.67 18.67-8.375 18.67-18.67 18.67zm70.388-29.368c-15.406-12.153-33.375-17.824-49.588-15.75-2.776-2.188-5.898-3.956-9.277-5.19 6.371-17.168 22.777-35.388 63.713-35.388 32.457 0 60.318 13.521 78.653 38.1-5.398 19.566-8.845 40.545-10.119 61.932-6.343.092-12.333 2.134-17.27 5.813-5.056-3.764-11.205-5.83-17.707-5.83-3.174 0-6.232.505-9.103 1.43-3.785-16.914-14.302-33.284-29.302-45.117zm239.797 93.12c1.614 0 2.927 1.313 2.927 2.928v22.867c0 1.614-1.313 2.927-2.927 2.927h-15.523v-28.722zm-112.853 167.314c-42.972 0-77.932-34.96-77.932-77.932v-45.661h155.864v45.661c.001 42.972-34.96 77.932-77.932 77.932zm82.33-138.593h-20.563v-28.722h20.563zm-35.562 0h-21.486v-28.722h21.486zm-36.486 0h-20.563v-28.722h20.563zm-35.563 0h-21.486v-28.722h21.486zm-36.486 0h-20.563v-28.722h20.563zm-35.562 0h-15.523c-1.614 0-2.927-1.313-2.927-2.927v-22.867c0-1.614 1.313-2.928 2.927-2.928h15.523zm-5.34 44.035c-9.396 0-17.04-7.64-17.04-17.03 0-4.594 1.836-8.915 5.066-12.096.589.059 1.187.091 1.792.091h19.92v25.962c-2.86 2.007-6.202 3.073-9.738 3.073zm179.67 81.76c1.122 2.658 3.668 4.436 6.549 4.575 14.467.696 26.848 8.455 28.8 18.047.669 3.29 3.443 5.734 6.791 5.983 15.626 1.167 27.867 10.248 27.867 20.674 0 7.699-6.819 14.987-17.373 18.567-2.865.972-4.866 3.571-5.073 6.589-.751 10.961-14.781 19.879-31.274 19.879-1.54 0-3.123-.083-4.706-.246-3.354-.346-6.509 1.578-7.745 4.704-3.597 9.102-16.343 15.708-30.307 15.708-3.375 0-6.698-.365-9.875-1.086-2.889-.654-5.89.45-7.663 2.82-5.427 7.252-16.186 11.756-28.078 11.756s-22.651-4.504-28.079-11.756c-1.774-2.37-4.773-3.475-7.663-2.82-3.177.721-6.5 1.086-9.875 1.086-13.963 0-26.709-6.606-30.307-15.708-1.235-3.126-4.393-5.047-7.744-4.704-1.584.163-3.167.246-4.707.246-16.493 0-30.523-8.917-31.274-19.879-.207-3.019-2.208-5.617-5.073-6.589-10.553-3.58-17.373-10.868-17.373-18.567 0-8.567 8.227-16.395 20.471-19.479 2.975-.749 5.194-3.235 5.602-6.276 1.351-10.074 13.798-18.221 28.953-18.95 2.881-.139 5.427-1.917 6.549-4.574.875-2.073 2.258-4.061 4.068-5.882 5.66 6.822 12.274 12.826 19.637 17.802-15.391 8.518-24.243 20.632-24.243 33.887 0 21.533 23.035 39.438 57.32 44.554.375.056.748.083 1.116.083 3.653 0 6.854-2.673 7.409-6.394.611-4.097-2.214-7.914-6.311-8.525-25.805-3.85-44.534-16.348-44.534-29.718 0-9.506 9.76-18.973 25.576-24.914v29.138c0 4.142 3.358 7.5 7.5 7.5s7.5-3.358 7.5-7.5v-24.531c6.619 1.501 13.502 2.298 20.569 2.298s13.95-.797 20.569-2.298v24.531c0 4.142 3.358 7.5 7.5 7.5s7.5-3.358 7.5-7.5v-29.138c15.817 5.941 25.576 15.406 25.576 24.914 0 13.379-18.745 25.88-44.572 29.724-4.097.61-6.924 4.426-6.314 8.522.554 3.723 3.755 6.397 7.409 6.397.367 0 .739-.027 1.113-.083 34.311-5.107 57.364-23.014 57.364-44.561 0-13.257-8.852-25.37-24.243-33.888 7.63-5.156 14.453-11.418 20.246-18.549 2.193 2.017 3.85 4.257 4.852 6.631zm25.669-81.76c-3.537 0-6.878-1.066-9.738-3.072v-25.962h19.92c.605 0 1.202-.032 1.792-.091 3.23 3.181 5.066 7.501 5.066 12.096 0 9.389-7.644 17.029-17.04 17.029zm-37.81-101.36c1.417 1.864 3.624 2.959 5.966 2.96h.004c2.34 0 4.546-1.092 5.965-2.954 2.827-3.709 7.108-5.836 11.745-5.836 8.128 0 14.74 6.612 14.74 14.74 0 1.628-.275 3.195-.781 4.694h-204.997c-.506-1.498-.781-3.066-.781-4.694 0-8.127 6.612-14.74 14.74-14.74 4.637 0 8.918 2.127 11.745 5.836 1.418 1.861 3.625 2.954 5.965 2.954h.004c2.342-.001 4.548-1.097 5.966-2.96 2.817-3.705 7.096-5.83 11.74-5.83 4.638 0 8.913 2.125 11.73 5.83 1.417 1.864 3.624 2.959 5.966 2.96h.004c2.34 0 4.546-1.092 5.965-2.954 2.827-3.709 7.108-5.836 11.745-5.836 4.644 0 8.923 2.125 11.74 5.83 1.418 1.865 3.627 2.96 5.97 2.96s4.552-1.095 5.97-2.96c2.817-3.705 7.096-5.83 11.74-5.83 4.637 0 8.918 2.127 11.745 5.836 1.418 1.861 3.625 2.954 5.965 2.954h.004c2.342-.001 4.548-1.097 5.966-2.96 2.817-3.705 7.092-5.83 11.73-5.83 4.644 0 8.922 2.125 11.739 5.83zm36.597-87.332c-10.294 0-18.67-8.375-18.67-18.67s8.375-18.67 18.67-18.67 18.67 8.375 18.67 18.67-8.376 18.67-18.67 18.67zm95.873 52.184c-10.295 0-18.67-8.375-18.67-18.67s8.375-18.67 18.67-18.67c10.294 0 18.67 8.375 18.67 18.67s-8.376 18.67-18.67 18.67z"/><path d="m143.518 411.561h-.087c-4.103-.029-7.475 3.316-7.498 7.458s3.359 7.519 7.501 7.542h.043c4.122 0 7.476-3.331 7.499-7.458.023-4.142-3.316-7.519-7.458-7.542z"/><path d="m207.081 459.615h-.087c-4.142 0-7.456 3.358-7.456 7.5s3.401 7.5 7.543 7.5 7.5-3.358 7.5-7.5-3.358-7.5-7.5-7.5z"/><path d="m368.526 426.561h.043.087c4.142-.023 7.438-3.399 7.414-7.542-.023-4.128-3.419-7.458-7.542-7.458-.014 0-.029 0-.043 0-4.142.023-7.481 3.4-7.458 7.542.023 4.128 3.377 7.458 7.499 7.458z"/><path d="m304.922 459.615c-4.142 0-7.5 3.358-7.5 7.5s3.358 7.5 7.5 7.5h.087c4.142 0 7.456-3.358 7.456-7.5s-3.401-7.5-7.543-7.5z"/></g></g></svg>