<?xml version="1.0"?>
<svg xmlns="http://www.w3.org/2000/svg" viewBox="0 0 512 512" width="512" height="512"><g id="Fill_out_line" data-name="Fill out line"><path d="M480,24a568.145,568.145,0,0,1-56.68994,134.26,568.42673,568.42673,0,0,1-88.99,115.42017L276,332l-12.34009-12.33984A39.12977,39.12977,0,0,0,216.72,313.27979c-.24.14013-.48.28027-.72.43017a38.59352,38.59352,0,0,0-7.65991,5.9502L160,368V288l56-56L325.79,122.21A421.94081,421.94081,0,0,1,451.55005,35.54Q465.5448,29.25513,480,24Z" style="fill:#c4d4e0"/><path d="M216,232v81.71a38.59352,38.59352,0,0,0-7.65991,5.9502L160,368V288Z" style="fill:#a6b2bc"/><path d="M184,264v80L99.3137,428.6863A38.62739,38.62739,0,0,0,88,456v0a32,32,0,0,1-32,32H56a32,32,0,0,1-32-32V437.25482a32,32,0,0,1,9.37257-22.62739Z" style="fill:#ad7d4d"/><path d="M480,24a568.145,568.145,0,0,1-56.68994,134.26,568.42673,568.42673,0,0,1-88.99,115.42017L276,332l-12.34009-12.33984a38.86609,38.86609,0,0,0-5.01977-4.24024l58.71-58.71A545.39527,545.39527,0,0,0,451.55005,35.54Q465.5448,29.25513,480,24Z" style="fill:#d3e1e9"/><circle cx="144" cy="344" r="8"/><path d="M485.43262,18.127a7.99856,7.99856,0,0,0-8.167-1.6455A432.95643,432.95643,0,0,0,320.13086,116.55469L178.34277,258.34277,27.71582,408.96973A39.74237,39.74237,0,0,0,16,437.25488V456a40,40,0,0,0,80,0,30.42341,30.42341,0,0,1,8.9707-21.65625l84.68653-84.68652,24.33789-24.33789a31.11693,31.11693,0,0,1,44.00976,0l12.33789,12.33789a8.003,8.003,0,0,0,11.31446,0l58.32129-58.32129A577.268,577.268,0,0,0,487.708,26.1416,8.002,8.002,0,0,0,485.43262,18.127ZM176,340.68652,93.65625,423.0293A46.32144,46.32144,0,0,0,80,456a24,24,0,0,1-48,0V437.25488a23.84267,23.84267,0,0,1,7.03027-16.9707L176,283.31348Zm48.57129-39.07519a47.1315,47.1315,0,0,0-21.89063,12.39355L192,324.68555v-57.3711L331.44531,127.86914A416.885,416.885,0,0,1,437.94678,50.91748a538.775,538.775,0,0,1-126.25342,200.1333l-54.32007,54.31983A47.3456,47.3456,0,0,0,224.57129,301.61133Zm104.09277-33.58985L276,320.68652l-5.65625-5.65722,52.66406-52.66407A554.688,554.688,0,0,0,458.05249,41.42188q4.82922-2.12256,9.70825-4.12012A561.30481,561.30481,0,0,1,328.66406,268.02148Z"/><rect x="208" y="264" width="16" height="24"/><rect x="243.02944" y="219.99947" width="33.94113" height="16.00105" transform="translate(-85.06811 250.62742) rotate(-45)"/><rect x="283.02944" y="179.99947" width="33.94113" height="16.00105" transform="translate(-45.06811 267.19596) rotate(-45)"/><circle cx="56" cy="456" r="8"/></g></svg>
