<svg height="512" viewBox="0 0 128 128" width="512" xmlns="http://www.w3.org/2000/svg"><g><path d="m6.306 27.554h67.68v53.313h-67.68z" fill="#fc883a"/><path d="m121.694 80.867v-21.023l-12.986-2.633-12.828-21.795h-21.894v45.451z" fill="#3ea2e5"/><path d="m82.064 27.554h6.099v7.862h-6.099z" fill="#fc883a"/><path d="m113.38 65.979h8.314v6.741h-8.314z" fill="#dfeef4"/><path d="m100.266 42.868h-18.202v14.343h26.644z" fill="#dfeef4"/><path d="m6.306 80.867h115.387v12.193h-115.387z" fill="#3ea2e5"/><circle cx="29.86" cy="86.936" fill="#6d7a84" r="13.51"/><circle cx="98.14" cy="86.936" fill="#6d7a84" r="13.51"/><circle cx="29.86" cy="86.936" fill="#dfeef4" r="5.028"/><circle cx="98.14" cy="86.936" fill="#dfeef4" r="5.028"/><g><path d="m6.307 53.107a1.751 1.751 0 0 0 1.75-1.75v-22.057h52.194a1.75 1.75 0 0 0 0-3.5h-53.944a1.749 1.749 0 0 0 -1.75 1.75v23.8a1.75 1.75 0 0 0 1.75 1.757z"/><path d="m6.307 66.262a1.75 1.75 0 0 0 1.75-1.75v-4.5a1.75 1.75 0 1 0 -3.5 0v4.5a1.749 1.749 0 0 0 1.75 1.75z"/><path d="m122.041 58.128-12.221-2.478-12.432-21.122a1.749 1.749 0 0 0 -1.508-.862h-5.967v-6.112a1.75 1.75 0 0 0 -1.75-1.75h-6.1a1.75 1.75 0 0 0 -1.75 1.75v6.112h-4.577v-6.112a1.749 1.749 0 0 0 -1.75-1.75h-6.057a1.75 1.75 0 0 0 0 3.5h4.307v49.813h-29.3a15.217 15.217 0 0 0 -26.159 0h-8.72v-6.367a1.75 1.75 0 0 0 -3.5 0v20.31a1.75 1.75 0 0 0 1.75 1.75h10.506a15.216 15.216 0 0 0 26.093 0h42.188a15.216 15.216 0 0 0 26.093 0h10.506a1.75 1.75 0 0 0 1.75-1.75v-33.216a1.751 1.751 0 0 0 -1.402-1.716zm-2.1 12.842h-4.811v-3.241h4.813zm-14.3-15.51h-21.828v-10.842h15.452zm-21.828-26.16h2.6v4.362h-2.6zm-8.077 7.862h19.143l2.326 3.952h-15.142a1.75 1.75 0 0 0 -1.75 1.75v14.346a1.75 1.75 0 0 0 1.75 1.75h26.468l11.412 2.314v2.955h-6.563a1.751 1.751 0 0 0 -1.75 1.75v6.741a1.75 1.75 0 0 0 1.75 1.75h6.563v4.647h-8.723a15.217 15.217 0 0 0 -26.159 0h-9.325zm-67.679 54.148v-8.693h7.175a15.1 15.1 0 0 0 .014 8.693zm21.8 7.386a11.76 11.76 0 1 1 11.76-11.759 11.772 11.772 0 0 1 -11.758 11.763zm14.616-7.386a15.1 15.1 0 0 0 .014-8.693h39.026a15.1 15.1 0 0 0 .014 8.693zm53.668 7.39a11.76 11.76 0 1 1 11.759-11.763 11.772 11.772 0 0 1 -11.759 11.763zm21.8-7.386h-7.189a15.1 15.1 0 0 0 .014-8.693h7.175z"/><path d="m29.859 80.158a6.778 6.778 0 1 0 6.779 6.779 6.786 6.786 0 0 0 -6.779-6.779zm0 10.056a3.278 3.278 0 1 1 3.279-3.277 3.281 3.281 0 0 1 -3.279 3.277z"/><path d="m98.141 80.158a6.778 6.778 0 1 0 6.777 6.779 6.787 6.787 0 0 0 -6.777-6.779zm0 10.056a3.278 3.278 0 1 1 3.277-3.277 3.282 3.282 0 0 1 -3.277 3.277z"/><path d="m86.069 65.75a1.75 1.75 0 1 0 0-3.5h-4.006a1.75 1.75 0 1 0 0 3.5z"/><path d="m16.121 34.036a1.75 1.75 0 1 0 0 3.5h17.342a1.75 1.75 0 0 0 0-3.5z"/><path d="m40.4 34.036a1.75 1.75 0 0 0 0 3.5h3.594a1.75 1.75 0 0 0 0-3.5z"/></g></g></svg>