<svg height="512" viewBox="0 0 64 64" width="512" xmlns="http://www.w3.org/2000/svg"><g id="Filled_outline" data-name="Filled outline"><path d="m40 23v4h-22a2 2 0 0 0 -2 2v2a2 2 0 0 0 2 2h31a4 4 0 0 1 4 4v6h8v-6a14 14 0 0 0 -14-14z" fill="#66342e"/><path d="m61 46s-2 2-4 2-4-2-4-2v-3h8z" fill="#f9bb4b"/><path d="m40 23h-2c-5.668-.082-22.009-.548-31-3h-4v11h4c6-2 9-2 9-2a2 2 0 0 1 2-2h22z" fill="#f9bb4b"/><path d="m6 23h2v2h-2z" fill="#f4f4e6"/><path d="m45 18a2 2 0 1 0 -3.444 1.378l-2.556 1.622-1 2h9z" fill="#ffd782"/><path d="m47.691 22.035-1.7-4.246a3 3 0 1 0 -5.8 1.269l-1.729 1.1a1 1 0 0 0 -.359.4l-.718 1.437h-.239a9.931 9.931 0 0 1 -4.316-3.541l-1.664 1.11a11.433 11.433 0 0 0 2.074 2.329c-7.168-.241-18.915-.922-25.979-2.849a1.01 1.01 0 0 0 -.261-.044h-4a1 1 0 0 0 -1 1v11a1 1 0 0 0 1 1h4a1 1 0 0 0 .316-.051 39.582 39.582 0 0 1 7.684-1.866v.917a3 3 0 0 0 3 3h20.556a3.959 3.959 0 0 0 -.556 2 4 4 0 0 0 4 4h5a1 1 0 0 0 .948-.684l1.743-5.228a3 3 0 0 1 2.309 2.912v9a1 1 0 0 0 .293.707c.234.235 2.36 2.293 4.707 2.293s4.473-2.058 4.707-2.293a1 1 0 0 0 .293-.707v-9a15.005 15.005 0 0 0 -14.309-14.965zm-7.92-.34 2.321-1.473a1 1 0 0 0 .187-1.534 1 1 0 1 1 1.721-.688 1.012 1.012 0 0 0 .071.372l1.452 3.628h-5.905zm-24.6 6.357a39.127 39.127 0 0 0 -8.332 1.948h-2.839v-9h2.867c9.315 2.5 26.159 2.929 31.133 3h1v2h-21a2.994 2.994 0 0 0 -2.832 2.052zm31.108 9.948h-4.279a2 2 0 0 1 0-4h2.1a1.8 1.8 0 0 1 -.22.728 3.19 3.19 0 0 1 -2.123 1.3l.484 1.94a5.022 5.022 0 0 0 3.4-2.3 3.766 3.766 0 0 0 .459-1.668h1.509zm13.721 7.561a5.449 5.449 0 0 1 -3 1.439 5.449 5.449 0 0 1 -3-1.439v-1.561h6zm0-3.561h-6v-5a5.006 5.006 0 0 0 -5-5h-31a1 1 0 0 1 -1-1v-2a1 1 0 0 1 1-1h22a1 1 0 0 0 1-1v-3h6a13.015 13.015 0 0 1 13 13z"/><circle cx="21" cy="30" r="2"/><circle cx="37" cy="30" r="2"/><path d="m43 26h2v2h-2z"/><path d="m56 38h2v2h-2z"/><path d="m48 26h-1v2h1a8.009 8.009 0 0 1 8 8h2a10.011 10.011 0 0 0 -10-10z"/><path d="m6 23h2v2h-2z"/></g></svg>