<svg height="512" viewBox="0 0 64 64" width="512" xmlns="http://www.w3.org/2000/svg"><g id="Fill_Ouline" data-name="Fill Ouline"><g id="Color"><g><path d="m23 41h18a10 10 0 0 1 10 10v10a0 0 0 0 1 0 0h-38a0 0 0 0 1 0 0v-10a10 10 0 0 1 10-10z" fill="#656b76"/><path d="m26 58a8 8 0 0 1 -8-8v-7.651a9.987 9.987 0 0 0 -5 8.651v10h38v-3z" fill="#464a51"/><path d="m14 18a12.215 12.215 0 0 1 6.576 4.22l1.424 1.78v7l-2.59-1.3a6.168 6.168 0 0 1 -3.41-5.512 6.178 6.178 0 0 0 -.441-2.291z" fill="#656b76"/><path d="m50 18a12.215 12.215 0 0 0 -6.576 4.22l-1.424 1.78v7l2.59-1.3a6.168 6.168 0 0 0 3.41-5.512 6.178 6.178 0 0 1 .441-2.291z" fill="#93999a"/><path d="m24 41-11-4 3.293-2.253a27.815 27.815 0 0 1 31.413 0l3.294 2.253-11 4z" fill="#cc5144"/><path d="m32 59 11-4-2-6h4l-5-8z" fill="#464a51"/><path d="m32 59-11-4 2-6h-4l5-8z" fill="#464a51"/><path d="m26 35h12v6h-12z" fill="#80271e"/><path d="m40 41-8 18-8-18z" fill="#f8664f"/><path d="m32 59 10-5-1-5 3-2-4-6z" fill="#d0d8da"/><path d="m32 59-10-5 1-5-3-2 4-6z" fill="#d0d8da"/><path d="m20 11h24a0 0 0 0 1 0 0v18a12 12 0 0 1 -12 12 12 12 0 0 1 -12-12v-18a0 0 0 0 1 0 0z" fill="#d0d8da"/><path d="m20 11v18a11.934 11.934 0 0 0 14 11.82 11.994 11.994 0 0 1 -10-11.82v-12.995a2.98 2.98 0 0 1 2.827-3h.173a5 5 0 0 1 5 5 5 5 0 0 1 5.491-4.977 5.145 5.145 0 0 1 4.509 5.187.784.784 0 0 0 .785.785h1.215v-8z" fill="#93999a"/><path d="m30 25-.646 1.076a3 3 0 0 1 -5.014.2l-2.34-3.276z" fill="#f8664f"/><path d="m34 25 .646 1.076a3 3 0 0 0 5.014.2l2.34-3.276z" fill="#f8664f"/><path d="m36 3h-8a10 10 0 0 0 -10 10v2a2 2 0 0 0 2 2h2v-1a5 5 0 0 1 10 0 5 5 0 0 1 10 0v1h2a2 2 0 0 0 2-2v-2a10 10 0 0 0 -10-10z" fill="#4891d3"/><g fill="#cc5144"><path d="m24 41 .8 1.8a11.928 11.928 0 0 0 13.119-1.8z"/><path d="m29.354 26.076.646-1.076-8-2 1.739 2.435 5.1 1.276a3.032 3.032 0 0 0 .515-.635z"/><path d="m42 23-8 2 .646 1.076a3.032 3.032 0 0 0 .512.635l5.1-1.276z"/></g><path d="m36 3h-8a9.967 9.967 0 0 0 -7.168 3.035l3.305 5.875a4.99 4.99 0 0 1 7.863 4.09 4.99 4.99 0 0 1 7.863-4.09l3.305-5.875a9.967 9.967 0 0 0 -7.168-3.035z" fill="#2d72bc"/></g></g><g id="Outline_copy" data-name="Outline copy"><g fill="#323232"><path d="m37.684 31.051-3.45 1.15a7.112 7.112 0 0 1 -4.468 0l-3.45-1.15a1 1 0 0 0 -.632 1.9l1.316.436v1.613a1 1 0 0 0 2 0v-.946l.133.044a9.108 9.108 0 0 0 5.734 0l.133-.044v.946a1 1 0 0 0 2 0v-1.613l1.316-.438a1 1 0 0 0 -.632-1.9z"/><path d="m44.291 40.5 7.051-2.564a1 1 0 0 0 .222-1.765l-3.293-2.254a28.657 28.657 0 0 0 -3.6-2.056c.087-.389.155-.785.207-1.186l.158-.079a7.132 7.132 0 0 0 3.964-6.408 5.119 5.119 0 0 1 .37-1.919l1.559-3.9a1 1 0 0 0 -1.171-1.342 13.152 13.152 0 0 0 -4.758 2.29v-1.5a3 3 0 0 0 2-2.817 1 1 0 0 0 -2 0 1 1 0 0 1 -1 1h-1a5.976 5.976 0 0 0 -1.856-4.328l2.193-3.9a8.99 8.99 0 0 1 1.543 3.75 1 1 0 0 0 1.973-.325 10.956 10.956 0 0 0 -10.853-9.197h-8a10.96 10.96 0 0 0 -7.936 3.4c-.009.012-.02.021-.029.032a10.954 10.954 0 0 0 -3.035 7.568v2a3 3 0 0 0 2 2.816v1.5a13.152 13.152 0 0 0 -4.758-2.287 1 1 0 0 0 -1.171 1.342l1.559 3.9a5.119 5.119 0 0 1 .37 1.917 7.132 7.132 0 0 0 3.963 6.412l.158.079c.052.4.12.8.207 1.186a28.533 28.533 0 0 0 -3.6 2.056l-3.293 2.254a1 1 0 0 0 .222 1.765l7.052 2.56a11.018 11.018 0 0 0 -7.709 10.5v10a1 1 0 0 0 2 0v-10a9.011 9.011 0 0 1 8.1-8.954l-2.933 4.4a1 1 0 1 0 1.664 1.11l2.992-4.489 5.039 11.34a1 1 0 1 0 1.828-.812l-5.151-11.595h.461a1 1 0 0 0 1-1 12.964 12.964 0 0 0 10 0 1 1 0 0 0 1 1h.461l-6.95 15.637-8.38-4.19.849-4.247a1 1 0 1 0 -1.96-.392l-1 5a1 1 0 0 0 .533 1.091l10.006 4.988a.984.984 0 0 0 .441.113 1.008 1.008 0 0 0 .447-.1l10-5a1 1 0 0 0 .533-1.1l-.868-4.344 2.443-1.628a1 1 0 0 0 .277-1.387l-2.933-4.4a9.011 9.011 0 0 1 8.101 8.959v10a1 1 0 0 0 2 0v-10a11.018 11.018 0 0 0 -7.709-10.5zm3.964-20.832-.741 1.853a7.121 7.121 0 0 0 -.514 2.667 5.126 5.126 0 0 1 -2 4.07v-6.282a11.17 11.17 0 0 1 3.255-2.304zm-12.255-15.668a8.985 8.985 0 0 1 5.922 2.212l-2.438 4.333a5.977 5.977 0 0 0 -7.484 2.142 5.977 5.977 0 0 0 -7.484-2.142l-2.427-4.315a8.953 8.953 0 0 1 5.911-2.23zm-17 9a8.944 8.944 0 0 1 1.673-5.208l2.183 3.88a5.976 5.976 0 0 0 -1.856 4.328h-1a1 1 0 0 1 -1-1zm6 27h-.823l-9-3.274 1.685-1.154a26.483 26.483 0 0 1 3.068-1.772 13.057 13.057 0 0 0 5.07 6.137zm-4-11v-2a1 1 0 0 0 -2 0v1.258a5.126 5.126 0 0 1 -2-4.07 7.14 7.14 0 0 0 -.513-2.663l-.742-1.853a11.17 11.17 0 0 1 3.255 2.304v1.024a1 1 0 0 0 2 0v-5h1a1 1 0 0 0 1-1v-1a4 4 0 0 1 8 0 1 1 0 0 0 2 0 4 4 0 0 1 8 0v1a1 1 0 0 0 1 1h1v11a11 11 0 0 1 -22 0zm23.071 4.8a26.454 26.454 0 0 1 3.071 1.772l1.686 1.154-9.005 3.274h-.823v-.063a13.064 13.064 0 0 0 5.071-6.137zm-3.626 14.368a1 1 0 0 0 -.425 1.032l.849 4.251-6.823 3.412 6.13-13.793 2.437 3.657z"/><path d="m26.941 28.53a3.989 3.989 0 0 0 3.271-1.939l.645-1.077a1 1 0 0 0 -.615-1.484l-8-2a1 1 0 0 0 -1.055 1.551l2.34 3.277a3.986 3.986 0 0 0 3.252 1.675q.081 0 .162-.003zm-1.787-2.83-.761-1.067 4.053 1.014a2 2 0 0 1 -3.292.053z"/><path d="m41.758 22.03-8 2a1 1 0 0 0 -.615 1.484l.645 1.077a3.989 3.989 0 0 0 3.271 1.939q.081 0 .162 0a3.986 3.986 0 0 0 3.252-1.675l2.34-3.277a.988.988 0 0 0 .187-.57 1 1 0 0 0 -1.242-.981zm-2.912 3.67a2 2 0 0 1 -3.292-.052l4.053-1.014z"/></g></g></g></svg>